<?xml version="1.0" standalone="no"?>
<!DOCTYPE svg PUBLIC "-//W3C//DTD SVG 20010904//EN"
 "http://www.w3.org/TR/2001/REC-SVG-20010904/DTD/svg10.dtd">
<svg version="1.0" xmlns="http://www.w3.org/2000/svg"
 width="1000.000000pt" height="1000.000000pt" viewBox="0 0 1000.000000 1000.000000"
 preserveAspectRatio="xMidYMid meet">

<g transform="translate(0.000000,1000.000000) scale(0.100000,-0.100000)"
fill="#000000" stroke="none">
<path d="M4642 8910 c-89 -5 -177 -13 -195 -19 -17 -6 -47 -8 -64 -5 -18 3
-33 1 -33 -4 0 -5 -28 -12 -62 -16 -71 -7 -290 -56 -298 -66 -3 -4 -28 -15
-56 -24 -130 -43 -270 -155 -324 -261 -22 -43 -25 -61 -25 -160 0 -66 5 -122
12 -136 6 -13 24 -53 39 -89 33 -77 91 -175 145 -246 21 -28 39 -53 39 -57 0
-3 15 -21 33 -40 118 -125 128 -161 24 -92 -59 39 -235 163 -302 213 -27 20
-66 37 -100 44 -30 6 -55 15 -55 19 0 5 5 9 10 9 6 0 10 4 10 8 0 18 -90 52
-163 63 -208 31 -416 -61 -638 -281 -114 -113 -179 -192 -278 -337 -35 -51
-66 -93 -70 -93 -4 0 9 -66 30 -147 59 -233 71 -391 40 -548 -52 -271 -268
-427 -603 -437 -48 -2 -88 -5 -88 -8 0 -3 48 -23 108 -44 59 -22 121 -45 137
-52 17 -8 73 -29 125 -48 52 -19 149 -56 215 -81 66 -26 161 -62 210 -80 50
-19 122 -46 160 -61 122 -46 175 -66 463 -174 155 -58 278 -108 274 -112 -6
-6 -157 43 -262 87 -19 8 -98 37 -175 66 -77 29 -162 61 -190 71 -27 11 -79
30 -115 43 -36 13 -119 45 -185 70 -66 25 -160 61 -210 80 -49 18 -144 54
-210 80 -153 59 -225 85 -239 85 -7 0 -27 -60 -45 -132 -19 -73 -38 -137 -42
-143 -4 -5 -14 -48 -23 -95 -9 -47 -27 -134 -42 -195 -14 -60 -34 -171 -44
-245 -11 -74 -24 -155 -30 -180 -37 -150 -68 -837 -50 -1115 12 -202 37 -472
44 -484 3 -4 12 -52 20 -107 16 -100 34 -178 92 -404 17 -69 33 -132 35 -140
2 -8 6 -17 9 -20 3 -3 25 -59 49 -125 39 -109 174 -416 194 -440 4 -5 36 -57
70 -115 118 -198 255 -370 441 -555 286 -284 577 -473 976 -635 339 -137 741
-229 1143 -260 78 -6 166 -15 196 -21 74 -12 291 -12 291 1 0 12 -243 365
-579 840 -118 168 -248 352 -288 410 -41 58 -140 200 -221 315 -234 332 -578
825 -799 1142 l-204 292 20 38 c11 21 49 83 85 138 36 55 66 107 66 116 0 8
-38 71 -85 140 -68 98 -84 129 -80 148 4 14 122 189 264 390 142 201 348 494
458 651 109 157 275 393 368 525 93 132 189 269 214 305 25 36 146 209 270
385 123 176 274 392 336 480 61 88 126 180 143 205 l32 45 -10 329 c-6 182
-13 332 -15 335 -3 2 -27 -11 -53 -29 -159 -114 -171 -117 -153 -39 6 24 27
130 46 234 20 105 47 244 60 310 13 66 33 177 46 247 13 71 26 125 30 120 4
-4 12 -126 18 -272 12 -284 20 -380 30 -380 3 1 23 13 43 28 111 80 148 105
153 101 2 -3 -7 -66 -21 -140 -14 -73 -36 -192 -49 -264 -28 -154 -70 -372
-90 -470 l-14 -70 55 -80 c31 -44 119 -170 196 -280 78 -110 230 -326 338
-480 108 -154 212 -302 232 -330 19 -27 230 -329 468 -670 525 -751 518 -742
604 -863 130 -181 226 -326 226 -339 0 -8 -38 -69 -85 -137 -47 -68 -85 -130
-85 -138 0 -8 25 -50 55 -94 65 -95 115 -178 115 -192 0 -9 -36 -62 -189 -277
-28 -38 -105 -149 -173 -246 -68 -97 -219 -313 -336 -480 -117 -167 -257 -367
-310 -444 -119 -170 -317 -453 -586 -835 -345 -491 -390 -555 -446 -636 -30
-43 -57 -83 -59 -88 -7 -16 591 20 728 43 31 6 101 15 156 22 55 6 105 15 110
19 6 4 30 11 55 15 129 20 472 115 555 155 11 5 58 24 105 42 47 17 87 35 90
38 3 3 50 27 105 53 374 182 762 521 973 852 25 39 59 93 77 120 70 110 196
381 230 495 4 14 11 30 15 35 13 17 100 353 121 470 37 200 49 317 59 565 17
460 -21 911 -115 1345 -14 66 -33 158 -42 205 -10 47 -21 88 -26 91 -5 4 -7
12 -3 17 4 6 2 19 -3 29 -6 10 -29 83 -52 163 -74 261 -81 285 -89 295 -4 6
-22 55 -40 110 -56 170 -246 615 -330 770 -20 39 -54 102 -75 140 -210 389
-497 767 -715 940 -94 74 -208 149 -260 169 -25 10 -50 22 -56 26 -18 16 -156
33 -220 27 -46 -3 -83 -16 -154 -52 -52 -26 -106 -55 -120 -65 -14 -9 -47 -29
-75 -44 -27 -15 -76 -43 -108 -62 -32 -20 -62 -33 -65 -29 -4 4 27 36 68 73
543 479 597 812 160 989 -109 44 -326 96 -455 108 -22 3 -74 9 -115 14 -105
14 -752 21 -948 11z m-688 -1539 c-8 -181 -3 -226 26 -234 32 -8 23 -22 -31
-44 -41 -18 -51 -19 -56 -8 -4 12 -9 12 -33 0 -16 -8 -37 -15 -47 -15 -34 0
-84 40 -103 82 l-18 41 -12 -44 c-6 -24 -13 -50 -15 -57 -6 -18 -336 -13 -343
6 -2 7 5 12 17 12 11 0 25 9 31 19 11 22 14 320 2 337 -4 6 -17 15 -30 19 -13
3 -21 12 -19 18 2 8 54 13 170 15 l167 2 0 -55 c0 -40 -4 -55 -14 -55 -8 0
-17 11 -20 25 -4 15 -18 30 -32 35 -33 13 -131 13 -136 0 -1 -5 -1 -39 0 -75
l4 -65 43 0 c57 0 75 8 86 37 18 47 34 20 34 -57 0 -78 -16 -104 -35 -56 -11
29 -39 39 -96 34 l-38 -3 1 -50 c3 -118 -6 -105 72 -105 73 0 113 19 126 61 4
11 14 18 23 17 12 -2 18 7 22 37 8 52 33 98 67 125 23 18 37 21 76 17 l47 -4
0 44 c0 37 -4 46 -20 50 -31 8 -19 26 26 40 70 21 66 30 58 -146z m1693 125
c17 -11 36 -30 42 -43 26 -58 3 -132 -49 -153 -16 -7 -30 -15 -30 -19 0 -15
118 -157 138 -166 36 -16 19 -30 -38 -30 l-54 0 -74 98 c-40 54 -77 95 -82 92
-13 -8 -13 -121 0 -146 6 -10 20 -19 31 -19 12 0 19 -5 17 -12 -3 -9 -32 -14
-88 -16 -87 -3 -124 10 -78 27 14 5 27 15 30 23 8 22 9 322 1 334 -5 6 -18 16
-31 23 -46 24 -12 33 112 29 97 -2 127 -7 153 -22z m-1553 -122 c3 -9 6 -64 6
-124 0 -99 2 -109 20 -115 10 -3 28 -1 40 5 18 10 20 20 20 110 0 91 -2 99
-21 105 -11 4 -18 12 -16 18 4 15 86 22 99 9 5 -5 10 -60 10 -121 1 -99 3
-114 19 -124 26 -16 24 -26 -6 -37 -57 -22 -75 -23 -75 -5 0 15 -4 14 -35 -5
-40 -25 -74 -21 -105 10 -18 18 -20 34 -20 129 0 100 -2 111 -21 125 -30 21
-15 36 36 36 30 0 45 -5 49 -16z m392 8 c26 -17 40 -69 38 -142 -3 -93 2 -113
26 -105 11 3 20 0 24 -10 15 -39 26 3 26 97 0 91 -2 100 -20 105 -33 9 -23 28
26 46 45 16 70 15 59 -4 -10 -15 12 -10 25 6 17 21 67 19 78 -2 22 -41 -19
-78 -58 -53 -30 19 -40 -9 -40 -106 0 -92 1 -95 26 -104 48 -19 14 -31 -80
-29 -51 1 -98 -1 -104 -5 -6 -4 -20 2 -31 13 -19 19 -20 19 -59 0 -63 -32
-112 -1 -112 69 0 40 24 67 90 100 59 30 77 66 46 91 -25 21 -56 4 -56 -29 0
-34 -26 -53 -53 -39 -33 19 -17 73 28 97 23 13 104 15 121 4z m1520 -23 c38
-35 54 -72 54 -124 0 -123 -114 -202 -208 -145 -49 30 -72 75 -72 143 0 67 16
101 63 135 43 31 125 27 163 -9z m172 15 c9 -16 11 -16 33 0 32 22 75 20 99
-4 20 -20 20 -20 52 0 43 26 81 25 113 -3 26 -22 27 -26 26 -129 -1 -104 -1
-108 24 -124 37 -24 22 -34 -56 -34 -55 0 -69 3 -69 15 0 8 7 15 15 15 21 0
28 38 23 130 -2 58 -7 84 -18 90 -22 14 -34 12 -58 -10 -19 -18 -22 -31 -22
-93 0 -85 7 -117 26 -117 8 0 14 -7 14 -15 0 -12 -14 -15 -68 -15 -79 0 -92 7
-60 32 21 15 23 25 23 107 0 73 -3 94 -18 108 -16 16 -20 16 -45 3 -26 -15
-27 -19 -30 -114 -3 -91 -1 -98 18 -103 11 -3 20 -12 20 -19 0 -11 -18 -14
-75 -14 -60 0 -75 3 -75 15 0 8 6 15 14 15 24 0 30 21 32 102 3 95 -3 118 -27
118 -33 0 -21 20 24 40 52 24 54 24 65 4z m552 1 c32 -16 60 -61 60 -95 0 -19
-6 -20 -89 -20 -50 0 -92 -4 -95 -9 -9 -14 14 -74 36 -93 32 -29 82 -23 111
12 45 52 64 33 27 -28 -39 -64 -113 -89 -170 -56 -75 45 -90 181 -29 259 37
46 96 58 149 30z m180 -1 c0 -14 2 -14 22 0 35 25 67 20 78 -10 17 -43 -26
-74 -59 -41 -10 10 -15 8 -27 -8 -11 -15 -14 -42 -12 -105 3 -77 5 -86 26 -95
12 -5 22 -15 22 -22 0 -9 -22 -13 -80 -13 -61 0 -80 3 -80 14 0 7 9 16 20 19
18 5 20 14 20 107 0 93 -2 102 -20 107 -31 8 -24 22 23 43 51 24 67 25 67 4z
m324 -10 c66 -45 84 -130 45 -210 -46 -95 -150 -112 -220 -36 -126 134 25 347
175 246z m-4696 -351 c18 -54 39 -127 47 -163 22 -89 31 -310 16 -380 -44
-206 -207 -332 -448 -347 -51 -3 -93 -9 -93 -13 0 -4 51 -26 113 -48 102 -37
241 -90 682 -261 83 -32 238 -91 345 -131 107 -40 197 -75 199 -77 2 -1 1 -6
-2 -10 -7 -6 -139 40 -352 122 -60 23 -283 109 -495 190 -212 81 -398 152
-415 159 -16 7 -69 28 -117 46 -48 18 -85 36 -83 40 2 4 53 5 112 2 294 -12
487 110 534 338 26 123 -10 401 -71 563 -22 58 -24 67 -12 67 5 0 23 -44 40
-97z m218 -571 c42 -155 25 -288 -45 -360 -42 -43 -130 -82 -183 -82 -20 0
-28 -4 -23 -9 6 -5 165 -69 355 -141 189 -72 347 -133 349 -136 2 -2 2 -7 -2
-10 -3 -3 -39 6 -79 21 -89 33 -237 90 -298 115 -69 28 -339 130 -392 148 -27
9 -48 19 -48 23 0 3 42 8 93 11 107 6 167 28 215 79 36 38 62 111 62 176 0 52
-26 185 -46 232 -8 18 -11 38 -7 44 8 13 27 -30 49 -111z"/>
<path d="M3796 7330 c-48 -57 -28 -181 31 -196 49 -13 58 4 58 104 0 94 -4
105 -41 116 -16 5 -28 -1 -48 -24z"/>
<path d="M5502 7468 c-13 -13 -17 -144 -4 -151 17 -11 99 24 111 47 16 29 6
83 -17 95 -33 17 -77 22 -90 9z"/>
<path d="M4406 7219 c-48 -37 -24 -105 29 -81 21 10 25 18 25 57 0 51 -12 57
-54 24z"/>
<path d="M5870 7335 c-31 -38 -21 -163 18 -207 20 -24 55 -23 78 3 27 29 25
133 -2 180 -23 39 -71 52 -94 24z"/>
<path d="M6625 7330 c-10 -11 -16 -22 -14 -24 8 -8 88 -10 95 -3 10 10 -26 47
-46 47 -9 0 -25 -9 -35 -20z"/>
<path d="M7104 7325 c-23 -35 -16 -144 12 -182 24 -32 65 -41 83 -19 34 40 30
151 -6 201 -24 33 -67 33 -89 0z"/>
<path d="M2213 7197 c-121 -215 -249 -492 -324 -702 -21 -60 -43 -119 -48
-130 -19 -41 -42 -125 -37 -134 7 -11 166 21 235 49 259 102 361 342 305 717
-15 104 -57 270 -72 285 -4 3 -30 -35 -59 -85z"/>
<path d="M5042 7208 c-47 -64 -232 -325 -328 -463 -39 -55 -162 -230 -274
-390 -112 -159 -234 -333 -270 -385 -37 -52 -125 -178 -196 -280 -630 -897
-830 -1182 -901 -1286 l-82 -122 83 -113 c45 -63 89 -115 97 -116 8 -2 27 16
44 40 16 23 94 134 174 247 285 404 737 1049 901 1285 91 132 184 265 205 295
21 30 91 129 154 220 63 91 133 190 155 220 23 31 93 131 156 222 63 92 118
167 122 168 8 0 115 -147 275 -380 66 -95 305 -437 377 -538 38 -53 114 -162
169 -242 56 -80 171 -244 257 -365 86 -121 259 -366 385 -545 348 -495 437
-620 447 -626 5 -3 18 2 29 12 23 21 134 192 142 219 4 15 -20 57 -91 158 -53
75 -396 564 -761 1085 -365 521 -701 999 -746 1062 -45 63 -168 240 -275 393
-106 152 -197 277 -201 277 -5 0 -26 -24 -47 -52z"/>
<path d="M5032 6638 c-35 -48 -166 -233 -461 -653 -58 -82 -137 -195 -176
-250 -39 -55 -102 -145 -140 -200 -57 -83 -368 -527 -504 -720 -19 -27 -71
-102 -115 -165 -44 -63 -145 -209 -226 -325 -185 -266 -210 -304 -210 -316 0
-16 292 -439 779 -1132 198 -281 504 -718 581 -830 41 -59 102 -146 135 -192
146 -204 342 -481 358 -508 10 -15 21 -27 26 -25 19 7 199 253 471 643 81 116
229 327 330 470 314 446 1066 1519 1084 1548 17 25 17 29 3 50 -9 12 -58 83
-110 157 -53 74 -131 186 -174 248 -43 62 -109 157 -147 210 -85 119 -327 463
-416 592 -37 52 -122 174 -190 270 -68 96 -168 240 -224 320 -55 80 -132 190
-171 245 -39 55 -137 192 -217 305 -165 233 -224 310 -238 310 -5 0 -27 -24
-48 -52z m265 -1334 c42 -31 71 -80 79 -132 12 -81 24 -96 122 -144 86 -41
125 -40 191 6 58 40 103 46 150 22 38 -20 135 -127 172 -189 26 -45 29 -58 24
-102 -3 -27 -20 -78 -36 -112 -28 -57 -29 -66 -20 -115 22 -119 84 -212 149
-224 50 -9 107 -49 124 -87 21 -50 18 -302 -5 -344 -23 -43 -65 -71 -126 -84
-63 -13 -85 -42 -126 -164 -30 -88 -29 -127 5 -174 11 -16 25 -54 31 -84 10
-47 9 -60 -9 -98 -26 -58 -152 -203 -191 -219 -40 -16 -91 -6 -150 31 -65 40
-106 38 -192 -7 -82 -43 -105 -69 -114 -127 -12 -70 -40 -124 -77 -144 -49
-27 -271 -26 -312 0 -32 21 -61 81 -70 147 -9 59 -18 69 -106 119 -102 59
-127 61 -185 21 -26 -18 -62 -36 -81 -42 -71 -19 -101 0 -225 144 l-61 71 4
71 c4 52 12 85 33 124 34 64 31 106 -16 217 -33 81 -66 115 -108 115 -39 0
-108 49 -127 89 -13 27 -17 66 -17 177 -1 122 2 146 18 170 27 42 55 61 104
74 64 16 99 45 125 104 53 119 55 184 10 262 -37 62 -34 146 7 207 76 115 163
187 226 187 15 0 55 -17 88 -37 73 -45 110 -46 192 -5 92 47 101 58 122 145
20 86 38 111 96 139 59 27 241 22 282 -8z"/>
<path d="M5061 5268 c-61 -10 -77 -29 -97 -110 -22 -91 -59 -133 -158 -182
-99 -48 -144 -48 -210 -1 -36 26 -60 35 -89 35 -35 0 -46 -7 -99 -62 -115
-120 -131 -178 -72 -268 41 -62 39 -136 -5 -247 -44 -109 -71 -139 -151 -166
-76 -26 -110 -66 -110 -128 l0 -39 240 0 c235 0 240 0 240 20 0 55 35 183 70
256 134 278 418 418 680 335 167 -52 317 -191 380 -351 7 -19 17 -40 21 -46
11 -14 39 -147 39 -185 l0 -29 240 0 240 0 0 45 c0 61 -35 97 -120 127 -75 27
-93 49 -141 171 -42 109 -42 155 -1 237 45 91 43 124 -13 198 -25 33 -63 76
-85 96 -52 47 -88 47 -160 1 -75 -47 -117 -47 -217 2 -86 43 -127 85 -144 145
-28 105 -39 126 -72 137 -44 13 -153 18 -206 9z"/>
<path d="M5050 4673 c-143 -25 -303 -149 -377 -294 -56 -109 -76 -213 -71
-354 5 -101 10 -133 36 -202 57 -154 161 -273 295 -337 182 -88 377 -64 535
67 138 114 233 321 232 506 -2 286 -195 554 -440 610 -44 10 -161 12 -210 4z
m207 -200 c6 -16 -16 -145 -42 -238 -8 -27 -44 -171 -81 -320 -79 -319 -85
-338 -116 -333 -33 4 -33 32 -4 151 150 608 180 721 199 745 14 17 36 15 44
-5z m-379 -215 c22 -22 12 -45 -53 -118 -54 -62 -62 -76 -52 -89 7 -9 36 -44
65 -79 55 -66 65 -103 28 -110 -33 -7 -186 159 -186 200 0 23 46 84 119 161
48 49 59 55 79 35z m589 -30 c60 -63 123 -148 123 -165 0 -21 -34 -68 -104
-140 -59 -63 -91 -77 -103 -47 -8 22 8 50 66 119 28 32 51 64 51 70 0 6 -27
41 -60 78 -60 68 -70 93 -48 115 19 19 32 14 75 -30z"/>
<path d="M4070 3980 c0 -69 38 -112 114 -129 71 -16 103 -52 146 -161 49 -129
50 -163 5 -255 -35 -71 -37 -79 -26 -115 14 -48 105 -167 151 -198 44 -29 72
-25 141 23 28 19 64 35 79 35 39 0 128 -33 187 -69 54 -34 71 -59 98 -153 21
-74 46 -104 91 -113 57 -10 179 -7 207 6 26 12 49 55 81 155 19 59 50 91 126
130 45 24 68 29 125 29 63 0 76 -4 119 -32 27 -18 60 -33 73 -33 53 0 203 180
203 244 0 17 -14 58 -31 90 -29 54 -31 65 -27 130 4 53 14 90 40 146 41 88 87
134 146 143 24 4 52 19 71 36 28 26 31 35 31 85 l0 56 -240 0 -240 0 0 -33 c0
-151 -93 -345 -221 -461 -83 -75 -175 -121 -283 -142 -84 -17 -93 -17 -179 0
-128 24 -212 70 -309 167 -62 62 -85 95 -122 171 -45 92 -75 199 -76 266 l0
32 -240 0 -240 0 0 -50z"/>
<path d="M3124 3917 c-49 -61 -124 -176 -124 -189 0 -5 35 -60 78 -121 43 -62
100 -143 127 -182 27 -38 62 -89 79 -112 17 -23 65 -90 106 -150 41 -59 196
-281 344 -493 148 -212 300 -429 338 -483 37 -54 99 -141 136 -195 38 -53 195
-277 349 -497 341 -487 488 -694 514 -720 19 -19 19 -19 34 0 26 34 263 368
460 650 104 149 306 437 449 640 143 204 298 426 346 495 47 69 145 209 218
312 188 267 578 824 587 837 12 21 -144 267 -165 259 -13 -5 -346 -472 -711
-998 -25 -36 -100 -141 -166 -235 -66 -93 -210 -298 -320 -455 -189 -270 -273
-390 -577 -820 -72 -101 -135 -184 -141 -184 -14 0 -126 156 -493 684 -36 52
-107 154 -157 225 -80 113 -605 860 -703 1000 -20 28 -90 127 -156 220 -66 94
-153 217 -193 275 -123 175 -208 290 -213 290 -3 -1 -24 -24 -46 -53z"/>
</g>
</svg>
